<svg width="106" height="117" viewBox="0 0 106 117" fill="none" xmlns="http://www.w3.org/2000/svg">
<mask id="mask0_1_16339" style="mask-type:alpha" maskUnits="userSpaceOnUse" x="0" y="-1" width="106" height="118">
<path d="M84.9357 74.1075C84.9357 97.5618 65.9222 116.575 42.4678 116.575C19.0135 116.575 0 97.5618 0 74.1075C0 50.6532 74.6512 -0.000104962 98.1055 -0.000104962C121.56 -0.000104962 84.9357 50.6532 84.9357 74.1075Z" fill="#FFCB3C"/>
</mask>
<g mask="url(#mask0_1_16339)">
<path fill-rule="evenodd" clip-rule="evenodd" d="M37.4093 68.4218C34.7841 67.3204 31.8182 67.1011 28.549 68.0578C17.3857 71.3247 12.8144 80.0239 12.203 90.3869C11.3466 104.952 18.6131 122.883 25.1212 131.792C25.8819 132.833 27.3426 133.059 28.3834 132.301C29.4218 131.54 29.6504 130.079 28.8897 129.039C22.8553 120.778 16.0672 104.168 16.8629 90.6622C17.353 82.3084 20.8626 75.1703 29.8605 72.5358C31.8066 71.9664 33.5777 72.0458 35.1714 72.6058C34.6534 73.6442 34.1587 74.6849 33.6896 75.7256C31.8159 79.8932 29.0157 91.465 30.0611 99.9729C30.8895 106.705 34.07 111.533 40.6317 111.356C44.3886 111.255 47.1609 108.985 48.8247 105.263C50.8758 100.673 51.1558 93.6514 49.7137 86.9193C48.5167 81.3213 46.1411 75.9496 42.8089 72.3374C42.3422 71.8311 41.8568 71.3574 41.3551 70.9187C52.2945 51.5251 72.0382 33.5293 92.3091 25.8638C93.5132 25.4088 94.1198 24.0624 93.6648 22.856C93.2097 21.6519 91.8611 21.0452 90.657 21.5002C69.5133 29.4948 48.904 48.2069 37.4093 68.4218ZM39.0917 75.2053C38.695 76.015 38.3123 76.827 37.9482 77.6391C36.2658 81.3796 33.755 91.766 34.6931 99.4035C35.1901 103.445 36.5692 106.796 40.5081 106.691C42.4402 106.64 43.7096 105.272 44.5637 103.359C45.6978 100.822 46.1015 97.3827 45.9218 93.7215C45.6395 88.0418 43.9244 81.8254 40.9049 77.4291C40.3472 76.617 39.7428 75.868 39.0917 75.2053Z" fill="#A84BC5"/>
<path fill-rule="evenodd" clip-rule="evenodd" d="M76.6849 55.0497C78.505 44.4347 85.4658 33.1406 92.9446 25.3141C93.8336 24.3831 93.801 22.906 92.87 22.0146C91.9389 21.1256 90.4594 21.1583 89.5704 22.0893C81.4895 30.5482 74.0504 42.7919 72.0856 54.261C71.8686 55.5304 72.7227 56.7368 73.9921 56.9538C75.2615 57.1708 76.4678 56.3191 76.6849 55.0497Z" fill="#A84BC5"/>
<path fill-rule="evenodd" clip-rule="evenodd" d="M89.7685 21.6446C82.0797 26.0338 70.2862 26.6079 61.6897 24.3817C60.4413 24.0597 59.1672 24.8111 58.8452 26.0572C58.5232 27.3033 59.2723 28.5773 60.5207 28.9017C70.1859 31.4009 83.4377 30.6331 92.0833 25.6978C93.201 25.0608 93.5908 23.6327 92.9514 22.5149C92.312 21.3972 90.8862 21.0075 89.7685 21.6446Z" fill="#A84BC5"/>
</g>
</svg>
