<svg width="98" height="98" viewBox="0 0 98 98" fill="none" xmlns="http://www.w3.org/2000/svg">
<path d="M88.8119 41.2415C86.8278 41.6436 84.8243 41.9434 82.8094 42.1398C82.5183 42.214 82.2099 42.1748 81.9467 42.0301C81.6835 41.8854 81.485 41.6461 81.3916 41.3607C81.2982 41.0752 81.3167 40.7649 81.4435 40.4926C81.5703 40.2203 81.7958 40.0063 82.0744 39.894C83.6669 39.0365 85.0961 38.0973 86.6886 37.3215C87.3794 37.0071 88.0884 36.7344 88.8119 36.5048L91.0169 35.974C92.7849 35.6626 94.5721 35.4716 96.3661 35.4023C96.5406 35.354 96.7233 35.3425 96.9025 35.3686C97.0818 35.3946 97.2536 35.4576 97.4072 35.5536C97.5608 35.6496 97.6927 35.7765 97.7947 35.9262C97.8966 36.0758 97.9663 36.2451 97.9994 36.4232C98.0725 36.7695 98.0064 37.1307 97.8154 37.4287C97.6244 37.7266 97.3238 37.9375 96.9786 38.0157C95.3044 38.6282 93.7936 39.4448 92.1602 40.0982C90.5269 40.7515 89.8327 40.8332 88.8119 41.2415Z" fill="#A84BC5"/>
<path d="M79.2158 10.821C78.6033 11.6785 78.0316 12.5769 77.3783 13.4344C76.7249 14.2919 74.8466 16.1702 73.6216 17.5177C73.5514 17.6657 73.4513 17.7975 73.3277 17.9048C73.204 18.0121 73.0593 18.0926 72.903 18.1412C72.7466 18.1898 72.5818 18.2054 72.4191 18.187C72.2563 18.1687 72.0992 18.1168 71.9575 18.0347C71.8159 17.9525 71.6928 17.8419 71.5961 17.7097C71.4994 17.5776 71.4311 17.4268 71.3956 17.2669C71.3601 17.1071 71.3582 16.9416 71.3899 16.7809C71.4216 16.6202 71.4864 16.4679 71.5799 16.3335C72.1035 14.71 72.7449 13.1269 73.4991 11.5969C73.8605 10.9504 74.2558 10.3234 74.6833 9.71854C75.1061 9.17903 75.5558 8.66115 76.0308 8.16687C77.2686 6.94412 78.6381 5.86225 80.1141 4.94104C80.3914 4.72195 80.7437 4.62058 81.0951 4.65877C81.4464 4.69696 81.7687 4.87166 81.9924 5.14521C82.1184 5.26705 82.2186 5.41299 82.287 5.57433C82.3554 5.73567 82.3906 5.90913 82.3906 6.08437C82.3906 6.25962 82.3554 6.43308 82.287 6.59442C82.2186 6.75576 82.1184 6.9017 81.9924 7.02354C80.9906 8.23179 80.0633 9.49997 79.2158 10.821Z" fill="#A84BC5"/>
<path d="M52.5116 9.02415C52.1485 10.4277 51.6564 11.7946 51.0416 13.1075C51.0122 13.2604 50.953 13.406 50.8673 13.5359C50.7816 13.6659 50.6712 13.7777 50.5422 13.865C50.4132 13.9522 50.2684 14.0131 50.1158 14.0443C49.9633 14.0755 49.8061 14.0763 49.6533 14.0466C49.3529 13.9871 49.0872 13.8134 48.9121 13.5622C48.737 13.3109 48.666 13.0016 48.7141 12.6991C48.7141 11.3108 48.3058 10.045 48.2649 8.61581C48.2088 7.47623 48.3189 6.33454 48.5916 5.22665C48.9183 3.83832 49.3266 2.57248 49.7349 1.14332C49.7856 0.792252 49.9726 0.475322 50.2555 0.261281C50.5383 0.0472401 50.8942 -0.0466492 51.2458 -1.832e-05C51.4179 0.0201342 51.5843 0.0743294 51.7353 0.159412C51.8863 0.244495 52.0189 0.358765 52.1253 0.495569C52.2317 0.632373 52.3098 0.788978 52.3551 0.956266C52.4004 1.12355 52.412 1.29818 52.3891 1.46998C52.3891 2.85832 52.7158 4.12415 52.7974 5.55332C52.8384 6.13788 52.8384 6.72459 52.7974 7.30915C52.7654 7.88957 52.6695 8.4647 52.5116 9.02415Z" fill="#A84BC5"/>
<path d="M29.8078 28.5832C27.8887 28.2974 26.0104 28.1749 24.132 27.7665C23.3399 27.6301 22.5612 27.4252 21.8045 27.154L19.5587 26.3374C17.8029 25.6432 16.1287 24.8265 14.3729 24.1324C14.2039 24.0922 14.0446 24.0191 13.9039 23.9173C13.7633 23.8155 13.644 23.687 13.553 23.5391C13.462 23.3912 13.401 23.2269 13.3736 23.0554C13.3461 22.884 13.3526 22.7088 13.3929 22.5399C13.4331 22.371 13.5062 22.2116 13.608 22.071C13.7098 21.9303 13.8383 21.8111 13.9861 21.7201C14.134 21.6291 14.2984 21.5681 14.4698 21.5406C14.6413 21.5131 14.8164 21.5197 14.9854 21.5599C16.9163 21.7017 18.8382 21.947 20.7429 22.2949C21.5187 22.2949 22.3354 22.6215 23.1112 22.8665C23.8881 23.0958 24.6515 23.3685 25.3978 23.6832C27.1945 24.459 28.787 25.439 30.502 26.3374C30.7657 26.4558 30.977 26.6665 31.0961 26.9299C31.2151 27.1933 31.2337 27.4912 31.1484 27.7674C31.063 28.0435 30.8796 28.2789 30.6326 28.4292C30.3857 28.5795 30.0924 28.6343 29.8078 28.5832Z" fill="#A84BC5"/>
<path d="M0.734735 49.7757C3.22927 48.244 6.00669 47.2302 8.9014 46.7948C10.5622 46.5357 12.2444 46.44 13.9239 46.509C16.5781 46.509 19.0689 47.1215 21.2331 47.3665C21.3886 47.3611 21.5437 47.3863 21.6894 47.4408C21.8352 47.4954 21.9688 47.5781 22.0826 47.6843C22.1963 47.7904 22.2881 47.918 22.3525 48.0597C22.4169 48.2013 22.4528 48.3543 22.4581 48.5098C22.4588 48.8211 22.341 49.1209 22.1286 49.3484C21.9163 49.5759 21.6253 49.7141 21.3147 49.7348C18.9464 50.1023 16.2106 50.5923 13.1481 50.919L9.06473 51.164C7.75806 51.164 6.49224 51.164 5.2264 51.3682C3.98944 51.4877 2.77016 51.748 1.59223 52.144C1.43672 52.2218 1.26743 52.2681 1.094 52.2805C0.920578 52.2928 0.746424 52.2708 0.581484 52.2158C0.416544 52.1609 0.264048 52.0739 0.132704 51.96C0.00135803 51.8461 -0.106264 51.7074 -0.184017 51.5519C-0.26177 51.3964 -0.308136 51.2271 -0.320461 51.0537C-0.332787 50.8803 -0.310829 50.7061 -0.255848 50.5412C-0.200869 50.3762 -0.113939 50.2237 -2.47955e-05 50.0924C0.11389 49.9611 0.252562 49.8534 0.408068 49.7757H0.734735Z" fill="#A84BC5"/>
<path d="M25.3571 71.3767C25.7234 70.598 26.1465 69.8474 26.623 69.1309C27.0977 68.4225 27.6451 67.7656 28.2563 67.1709C29.7301 65.8294 31.3953 64.7147 33.1972 63.8634C33.3188 63.7538 33.4619 63.6706 33.6174 63.6191C33.7728 63.5676 33.9373 63.549 34.1003 63.5643C34.2634 63.5796 34.4215 63.6285 34.5646 63.708C34.7078 63.7875 34.8329 63.8959 34.9321 64.0262C35.0312 64.1565 35.1023 64.306 35.1407 64.4652C35.1792 64.6244 35.1842 64.7898 35.1555 64.951C35.1267 65.1122 35.0649 65.2657 34.9738 65.4018C34.8827 65.5379 34.7644 65.6537 34.6263 65.7417C33.9386 66.4767 33.2976 67.254 32.7072 68.0692C32.2172 68.7634 31.8905 69.4167 31.4413 70.07C30.9922 70.7234 30.5838 71.3359 30.1347 71.9484C28.7872 73.8267 27.358 75.6234 26.0513 77.91C25.8825 78.1886 25.6185 78.3966 25.3081 78.4955C24.9977 78.5944 24.662 78.5776 24.3632 78.4481C24.0643 78.3185 23.8224 78.0851 23.6823 77.791C23.5423 77.4969 23.5135 77.1621 23.6013 76.8484C24.0639 74.9874 24.6505 73.1594 25.3571 71.3767Z" fill="#A84BC5"/>
<path d="M27.4807 48.0199C27.4789 47.7559 27.5411 47.4954 27.662 47.2607C27.7829 47.026 27.9589 46.8241 28.1749 46.6724L39.9757 38.0157C39.9757 36.7499 39.404 34.2182 39.159 31.7682C38.9586 30.1427 38.8632 28.506 38.8732 26.8682C38.9165 25.6436 39.0807 24.4263 39.3632 23.234C39.4509 22.9149 39.6106 22.6201 39.83 22.3723C40.0494 22.1245 40.3228 21.9304 40.629 21.8049C41.1257 21.6868 41.6432 21.6868 42.1399 21.8049C43.1699 22.2046 44.1552 22.7109 45.0799 23.3157L55.4515 29.4815L67.4157 23.969C67.6561 23.8471 67.9219 23.7835 68.1915 23.7835C68.4611 23.7835 68.7269 23.8471 68.9674 23.969C69.4379 24.347 69.7913 24.8509 69.9865 25.422C70.1817 25.9931 70.2106 26.6079 70.0699 27.1949C69.2675 31.3575 68.1482 35.4528 66.7215 39.4449L68.6815 41.3232C70.766 42.9796 72.7435 44.7662 74.6024 46.6724C75.5181 47.6731 76.2383 48.8365 76.7257 50.1024C77.0107 50.8506 77.0147 51.6768 76.7369 52.4277C76.4591 53.1786 75.9183 53.8032 75.2149 54.1857C73.6372 55.0937 71.8823 55.6508 70.0699 55.819H67.2115C69.9474 58.3507 72.6832 60.9232 75.3782 63.5774C76.9707 65.2515 78.5223 66.9665 80.0332 68.6815C81.544 70.3965 83.014 72.234 84.4023 74.0715C87.6788 78.3671 90.7186 82.8382 93.5082 87.4649C93.6091 87.6064 93.6808 87.7666 93.719 87.9361C93.7572 88.1056 93.7612 88.2811 93.7308 88.4522C93.7004 88.6233 93.6361 88.7867 93.5418 88.9326C93.4475 89.0786 93.325 89.2043 93.1815 89.3024C93.0368 89.4043 92.8733 89.4768 92.7006 89.5155C92.5278 89.5543 92.3491 89.5586 92.1746 89.5283C92.0002 89.498 91.8335 89.4335 91.6839 89.3387C91.5344 89.2439 91.405 89.1205 91.3032 88.9757C89.5065 86.5257 87.5873 84.1982 85.6273 81.8707C83.6673 79.5432 81.6665 77.5832 79.5432 75.0924C77.4199 72.6015 75.4599 70.5599 73.5815 68.2732C70.029 64.1899 66.6399 59.8207 63.169 55.6149C61.6582 55.6149 60.2699 55.6149 59.0857 55.2882L58.024 57.6565C60.9232 61.7399 64.0265 65.8232 67.0074 69.9065C69.4165 72.8057 71.5807 75.909 73.4999 79.094C76.9367 84.4968 79.9405 90.1631 82.4832 96.0399C82.5923 96.2164 82.6578 96.4164 82.6743 96.6232C82.6907 96.8301 82.6577 97.0379 82.5779 97.2294C82.498 97.421 82.3738 97.5908 82.2153 97.7248C82.0568 97.8587 81.8687 97.953 81.6665 97.9999C81.3468 98.1554 80.9786 98.1784 80.642 98.0637C80.3055 97.9489 80.0279 97.7058 79.8698 97.3874C76.6502 91.7329 73.0911 86.2785 69.2124 81.054C67.7015 78.8899 66.1907 76.7257 64.7615 74.5615L61.9032 70.0699C60.0657 67.0482 58.3099 63.9449 56.5949 60.8415C55.8599 62.3932 55.0432 63.904 54.3082 65.1699C53.2305 66.6772 51.837 67.9314 50.2249 68.8449C49.5644 69.2142 48.7963 69.3429 48.0515 69.2088C47.3068 69.0748 46.6317 68.6863 46.1415 68.1099C45.2664 67.0471 44.6012 65.8277 44.1815 64.5165C43.4735 61.9651 42.9145 59.3746 42.5074 56.7582L41.8949 54.104C37.7335 53.3141 33.6383 52.2084 29.6449 50.7965C28.0115 49.7757 27.4399 48.5915 27.4807 48.0199ZM44.0182 50.184C44.3988 50.2453 44.7528 50.4174 45.0361 50.6789C45.3194 50.9404 45.5192 51.2795 45.6107 51.654L46.6724 55.4924C47.1215 57.3707 47.4482 59.5757 48.1015 61.8624C48.3514 62.7785 48.7222 63.6574 49.204 64.4757C49.7515 63.8968 50.2436 63.2679 50.674 62.5974C51.3682 61.4132 52.144 59.9432 52.8382 58.514C54.4307 55.2882 55.7782 52.0624 55.7782 52.0624C55.962 51.609 56.2888 51.2281 56.7089 50.9775C57.129 50.727 57.6195 50.6204 58.1057 50.674C58.1057 50.674 61.6174 51.0824 65.2924 51.3274C67.5536 51.2538 69.8059 51.0081 72.0299 50.5924C71.6447 50.0105 71.1924 49.476 70.6824 48.9999C69.1307 47.3665 67.2524 45.8965 65.9049 44.549L63.0465 41.6907C62.7788 41.4238 62.594 41.0853 62.5143 40.7158C62.4346 40.3463 62.4634 39.9617 62.5974 39.6082C62.5974 39.6082 65.3332 32.4215 66.2315 28.2974L55.9824 32.6665C55.7589 32.7955 55.5054 32.8635 55.2474 32.8635C54.9893 32.8635 54.7358 32.7955 54.5124 32.6665C54.5124 32.6665 41.7315 25.194 41.2824 24.4999C41.2824 25.3574 41.5274 29.604 41.7724 31.3599C42.2624 34.749 42.9157 38.3015 42.9157 38.3015C42.9679 38.5595 42.9457 38.8269 42.8517 39.0727C42.7577 39.3185 42.5958 39.5325 42.3849 39.6899L32.3807 47.6115C36.4232 48.9999 44.0182 50.184 44.0182 50.184Z" fill="#A84BC5"/>
</svg>
