<svg width="1216" height="48" viewBox="0 0 1216 48" fill="none" xmlns="http://www.w3.org/2000/svg">
<g opacity="0.84">
<rect x="11" y="4" width="10" height="10" fill="#424650"/>
<rect opacity="0.6" x="31" y="4" width="10" height="10" fill="#424650"/>
<rect opacity="0.6" x="21" y="14" width="10" height="10" fill="#424650"/>
<rect opacity="0.45" x="31" y="14" width="10" height="10" fill="#424650"/>
<rect opacity="0.3" x="41" y="14" width="10" height="10" fill="#424650"/>
<rect opacity="0.6" x="11" y="24" width="10" height="10" fill="#424650"/>
<rect opacity="0.45" x="21" y="24" width="10" height="10" fill="#424650"/>
<rect opacity="0.3" x="31" y="24" width="10" height="10" fill="#424650"/>
<rect opacity="0.15" x="41" y="24" width="10" height="10" fill="#424650"/>
<rect opacity="0.3" x="21" y="34" width="10" height="10" fill="#424650"/>
<rect opacity="0.15" x="31" y="34" width="10" height="10" fill="#424650"/>
</g>
<g opacity="0.84">
<path d="M80.92 23.22C80.92 25.98 80.03 28.35 78.25 30.33C76.49 32.31 74.03 33.3 70.87 33.3C67.69 33.3 65.25 32.31 63.55 30.33C61.85 28.35 61 26 61 23.28C61 20.44 61.9 18.05 63.7 16.11C65.5 14.17 67.93 13.2 70.99 13.2C74.11 13.2 76.54 14.19 78.28 16.17C80.04 18.13 80.92 20.48 80.92 23.22ZM76.57 23.34C76.57 21.26 76.09 19.64 75.13 18.48C74.17 17.32 72.78 16.74 70.96 16.74C69.02 16.74 67.6 17.36 66.7 18.6C65.8 19.82 65.35 21.35 65.35 23.19C65.35 24.97 65.79 26.51 66.67 27.81C67.55 29.11 69.02 29.76 71.08 29.76C72.98 29.76 74.37 29.17 75.25 27.99C76.13 26.79 76.57 25.24 76.57 23.34Z" fill="#424650"/>
<path d="M97.7174 33H92.0474V30.48C91.6674 31.26 91.1074 31.93 90.3674 32.49C89.6274 33.03 88.6474 33.3 87.4274 33.3C85.6474 33.3 84.2474 32.69 83.2274 31.47C82.2074 30.25 81.6974 28.59 81.6974 26.49C81.6974 24.47 82.1974 22.75 83.1974 21.33C84.1974 19.91 85.7074 19.2 87.7274 19.2C88.8274 19.2 89.7274 19.42 90.4274 19.86C91.1274 20.3 91.6674 20.86 92.0474 21.54V15.3H89.3474V12.36H95.9174V30.09H97.7174V33ZM92.0474 26.16V25.83C92.0474 24.71 91.7474 23.84 91.1474 23.22C90.5674 22.58 89.8374 22.26 88.9574 22.26C88.0974 22.26 87.3374 22.58 86.6774 23.22C86.0374 23.86 85.7174 24.87 85.7174 26.25C85.7174 27.55 86.0174 28.54 86.6174 29.22C87.2174 29.9 87.9274 30.24 88.7474 30.24C89.7674 30.24 90.5674 29.81 91.1474 28.95C91.7474 28.09 92.0474 27.16 92.0474 26.16Z" fill="#424650"/>
<path d="M111.437 28.74C111.337 29.94 110.747 31 109.667 31.92C108.587 32.84 107.077 33.3 105.137 33.3C103.117 33.3 101.447 32.73 100.127 31.59C98.8268 30.45 98.1768 28.75 98.1768 26.49C98.1768 24.41 98.7668 22.68 99.9468 21.3C101.147 19.9 102.817 19.2 104.957 19.2C106.837 19.2 108.357 19.74 109.517 20.82C110.697 21.9 111.297 23.32 111.317 25.08C111.317 25.74 111.247 26.39 111.107 27.03H102.227C102.447 29.17 103.507 30.24 105.407 30.24C106.447 30.24 107.147 29.99 107.507 29.49C107.887 28.99 108.117 28.54 108.197 28.14L111.437 28.74ZM107.327 24.78C107.407 24.1 107.257 23.46 106.877 22.86C106.517 22.26 105.877 21.96 104.957 21.96C104.157 21.96 103.537 22.22 103.097 22.74C102.657 23.26 102.377 23.94 102.257 24.78H107.327Z" fill="#424650"/>
<path d="M113.489 20.43C114.669 19.95 115.649 19.63 116.429 19.47C117.229 19.29 118.179 19.2 119.279 19.2C120.739 19.2 121.999 19.58 123.059 20.34C124.119 21.1 124.649 22.25 124.649 23.79V29.67C124.649 30.37 124.959 30.72 125.579 30.72C125.759 30.72 125.949 30.69 126.149 30.63L126.179 32.67C125.399 33.09 124.589 33.3 123.749 33.3C121.969 33.3 120.979 32.41 120.779 30.63V30.6C120.399 31.28 119.849 31.9 119.129 32.46C118.429 33.02 117.529 33.3 116.429 33.3C115.449 33.3 114.509 33.01 113.609 32.43C112.709 31.85 112.259 30.85 112.259 29.43C112.259 27.77 112.919 26.67 114.239 26.13C115.579 25.59 117.019 25.32 118.559 25.32C119.419 25.32 120.159 25.36 120.779 25.44V24.99C120.779 24.29 120.679 23.61 120.479 22.95C120.299 22.29 119.659 21.96 118.559 21.96C118.159 21.96 117.789 21.99 117.449 22.05C117.129 22.09 116.809 22.19 116.489 22.35L115.979 24.27L112.889 23.94L113.489 20.43ZM120.779 27.48V27.3C120.459 27.26 120.129 27.22 119.789 27.18C119.469 27.14 119.149 27.12 118.829 27.12C118.149 27.12 117.549 27.25 117.029 27.51C116.509 27.75 116.249 28.24 116.249 28.98C116.249 29.42 116.369 29.79 116.609 30.09C116.849 30.39 117.259 30.54 117.839 30.54C118.519 30.54 119.149 30.3 119.729 29.82C120.329 29.32 120.679 28.54 120.779 27.48Z" fill="#424650"/>
<path d="M141.115 26.25C141.115 28.39 140.415 30.1 139.015 31.38C137.615 32.66 135.835 33.3 133.675 33.3C131.595 33.3 129.895 32.7 128.575 31.5C127.275 30.28 126.625 28.58 126.625 26.4C126.625 24.42 127.225 22.72 128.425 21.3C129.625 19.88 131.445 19.17 133.885 19.17C136.325 19.17 138.135 19.88 139.315 21.3C140.515 22.7 141.115 24.35 141.115 26.25ZM137.125 26.13C137.125 24.75 136.805 23.74 136.165 23.1C135.525 22.46 134.745 22.14 133.825 22.14C132.825 22.14 132.035 22.5 131.455 23.22C130.895 23.92 130.615 24.91 130.615 26.19C130.615 27.35 130.875 28.33 131.395 29.13C131.935 29.93 132.735 30.33 133.795 30.33C134.795 30.33 135.595 29.96 136.195 29.22C136.815 28.46 137.125 27.43 137.125 26.13Z" fill="#424650"/>
<path d="M156.293 33H141.653V29.58H143.753V16.92H141.653V13.5H150.503V16.92H147.773V29.58H152.873L153.473 25.8L156.893 26.1L156.293 33Z" fill="#424650"/>
<path d="M158.652 20.43C159.832 19.95 160.812 19.63 161.592 19.47C162.392 19.29 163.342 19.2 164.442 19.2C165.902 19.2 167.162 19.58 168.222 20.34C169.282 21.1 169.812 22.25 169.812 23.79V29.67C169.812 30.37 170.122 30.72 170.742 30.72C170.922 30.72 171.112 30.69 171.312 30.63L171.342 32.67C170.562 33.09 169.752 33.3 168.912 33.3C167.132 33.3 166.142 32.41 165.942 30.63V30.6C165.562 31.28 165.012 31.9 164.292 32.46C163.592 33.02 162.692 33.3 161.592 33.3C160.612 33.3 159.672 33.01 158.772 32.43C157.872 31.85 157.422 30.85 157.422 29.43C157.422 27.77 158.082 26.67 159.402 26.13C160.742 25.59 162.182 25.32 163.722 25.32C164.582 25.32 165.322 25.36 165.942 25.44V24.99C165.942 24.29 165.842 23.61 165.642 22.95C165.462 22.29 164.822 21.96 163.722 21.96C163.322 21.96 162.952 21.99 162.612 22.05C162.292 22.09 161.972 22.19 161.652 22.35L161.142 24.27L158.052 23.94L158.652 20.43ZM165.942 27.48V27.3C165.622 27.26 165.292 27.22 164.952 27.18C164.632 27.14 164.312 27.12 163.992 27.12C163.312 27.12 162.712 27.25 162.192 27.51C161.672 27.75 161.412 28.24 161.412 28.98C161.412 29.42 161.532 29.79 161.772 30.09C162.012 30.39 162.422 30.54 163.002 30.54C163.682 30.54 164.312 30.3 164.892 29.82C165.492 29.32 165.842 28.54 165.942 27.48Z" fill="#424650"/>
<path d="M187.087 25.92C187.087 27.92 186.557 29.65 185.497 31.11C184.457 32.57 182.917 33.3 180.877 33.3C178.817 33.3 177.367 32.52 176.527 30.96C176.487 31.3 176.437 31.64 176.377 31.98C176.337 32.32 176.287 32.66 176.227 33H172.357C172.497 32.3 172.617 31.6 172.717 30.9C172.817 30.2 172.867 29.51 172.867 28.83V15.3H171.067V12.36H176.737V22.05C177.097 21.27 177.637 20.6 178.357 20.04C179.097 19.48 180.077 19.2 181.297 19.2C182.997 19.2 184.387 19.79 185.467 20.97C186.547 22.15 187.087 23.8 187.087 25.92ZM183.067 26.25C183.067 24.95 182.787 23.96 182.227 23.28C181.667 22.6 180.927 22.26 180.007 22.26C178.967 22.26 178.157 22.64 177.577 23.4C177.017 24.16 176.737 25.04 176.737 26.04V26.37C176.737 27.47 177.007 28.4 177.547 29.16C178.107 29.9 178.897 30.27 179.917 30.27C180.797 30.27 181.537 29.95 182.137 29.31C182.757 28.65 183.067 27.63 183.067 26.25Z" fill="#424650"/>
<path d="M200.161 28.86C200.161 30.36 199.561 31.48 198.361 32.22C197.181 32.94 195.641 33.3 193.741 33.3C192.761 33.3 191.771 33.2 190.771 33C189.791 32.78 188.851 32.44 187.951 31.98L188.491 28.2L191.491 28.53V30.21C191.851 30.33 192.231 30.41 192.631 30.45C193.031 30.47 193.331 30.48 193.531 30.48C194.271 30.48 194.911 30.36 195.451 30.12C195.991 29.88 196.261 29.52 196.261 29.04C196.261 28.46 195.851 28.08 195.031 27.9C194.211 27.72 193.261 27.54 192.181 27.36C191.101 27.18 190.151 26.81 189.331 26.25C188.511 25.69 188.101 24.74 188.101 23.4C188.101 21.74 188.741 20.63 190.021 20.07C191.321 19.49 192.661 19.2 194.041 19.2C195.841 19.2 197.531 19.61 199.111 20.43L199.441 23.88L196.441 24.21L196.201 22.32C195.541 22.1 194.831 21.99 194.071 21.99C193.571 21.99 193.141 22.1 192.781 22.32C192.441 22.52 192.271 22.84 192.271 23.28C192.271 23.86 192.661 24.25 193.441 24.45C194.241 24.63 195.161 24.81 196.201 24.99C197.261 25.17 198.181 25.54 198.961 26.1C199.761 26.64 200.161 27.56 200.161 28.86Z" fill="#424650"/>
</g>
<g opacity="0.84">
<path d="M245 4L249.286 13.6525L259.142 9.85786L255.347 19.7139L265 24L255.347 28.2861L259.142 38.1421L249.286 34.3475L245 44L240.714 34.3475L230.858 38.1421L234.653 28.2861L225 24L234.653 19.7139L230.858 9.85786L240.714 13.6525L245 4Z" fill="#424650"/>
</g>
<g opacity="0.84">
<path d="M292.266 16.844C292.714 17.292 293.274 17.516 293.946 17.516C294.618 17.516 295.169 17.292 295.598 16.844C296.028 16.3773 296.242 15.8173 296.242 15.164C296.242 14.492 296.028 13.932 295.598 13.484C295.169 13.036 294.618 12.812 293.946 12.812C293.274 12.812 292.714 13.036 292.266 13.484C291.837 13.932 291.622 14.492 291.622 15.164C291.622 15.8173 291.837 16.3773 292.266 16.844Z" fill="#424650"/>
<path d="M277.396 23.2725L284.956 33H290.416L282.138 22.6398L290.136 13.232H284.704L277.396 22.1494V13.232H273V33H277.396V23.2725Z" fill="#424650"/>
<path d="M303.039 23.592C302.666 24.04 302.479 24.656 302.479 25.44V33H298.195V25.356C298.195 24.1053 298.466 23.0133 299.007 22.08C299.567 21.128 300.332 20.3907 301.303 19.868C302.292 19.3453 303.431 19.084 304.719 19.084C306.026 19.084 307.164 19.3453 308.135 19.868C309.106 20.3907 309.862 21.1187 310.403 22.052C310.944 22.9853 311.215 24.0867 311.215 25.356V33H306.931V25.44C306.931 24.656 306.735 24.04 306.343 23.592C305.97 23.1253 305.428 22.892 304.719 22.892C303.991 22.892 303.431 23.1253 303.039 23.592Z" fill="#424650"/>
<path d="M317.654 32.664C318.475 33.0933 319.427 33.308 320.51 33.308C321.555 33.308 322.405 33.1493 323.058 32.832C323.711 32.5147 324.299 32.0573 324.822 31.46L322.218 28.828C322.031 29.0333 321.817 29.192 321.574 29.304C321.35 29.3973 321.079 29.444 320.762 29.444C320.389 29.444 320.062 29.3227 319.782 29.08C319.521 28.8373 319.39 28.4733 319.39 27.988V23.06H323.842V19.392H319.39V13.764H315.106V19.392H312.082V23.06H315.106V27.96C315.106 29.0613 315.33 30.0133 315.778 30.816C316.226 31.6187 316.851 32.2347 317.654 32.664Z" fill="#424650"/>
<path d="M331.023 33.336C330.221 33.336 329.427 33.2333 328.643 33.028C327.878 32.8227 327.159 32.5333 326.487 32.16C325.834 31.768 325.274 31.32 324.807 30.816L327.243 28.352C327.691 28.8373 328.223 29.22 328.839 29.5C329.455 29.7613 330.127 29.892 330.855 29.892C331.359 29.892 331.742 29.8173 332.003 29.668C332.283 29.5187 332.423 29.3133 332.423 29.052C332.423 28.716 332.255 28.464 331.919 28.296C331.602 28.1093 331.191 27.9507 330.687 27.82C330.183 27.6707 329.651 27.512 329.091 27.344C328.531 27.176 327.999 26.9427 327.495 26.644C326.991 26.3453 326.581 25.9347 326.263 25.412C325.946 24.8707 325.787 24.1893 325.787 23.368C325.787 22.4907 326.011 21.7347 326.459 21.1C326.907 20.4467 327.542 19.9333 328.363 19.56C329.185 19.1867 330.146 19 331.247 19C332.405 19 333.469 19.2053 334.439 19.616C335.429 20.008 336.231 20.596 336.847 21.38L334.411 23.844C333.982 23.34 333.497 22.9853 332.955 22.78C332.433 22.5747 331.919 22.472 331.415 22.472C330.93 22.472 330.566 22.5467 330.323 22.696C330.081 22.8267 329.959 23.0227 329.959 23.284C329.959 23.564 330.118 23.788 330.435 23.956C330.753 24.124 331.163 24.2733 331.667 24.404C332.171 24.5347 332.703 24.6933 333.263 24.88C333.823 25.0667 334.355 25.3187 334.859 25.636C335.363 25.9533 335.774 26.3827 336.091 26.924C336.409 27.4467 336.567 28.1373 336.567 28.996C336.567 30.3213 336.063 31.376 335.055 32.16C334.066 32.944 332.722 33.336 331.023 33.336Z" fill="#424650"/>
<path d="M341.047 32.552C342.018 33.056 343.129 33.308 344.379 33.308C345.63 33.308 346.731 33.056 347.683 32.552C348.635 32.0293 349.382 31.32 349.923 30.424C350.465 29.5093 350.735 28.4547 350.735 27.26V19.392H346.451V27.232C346.451 27.9413 346.265 28.5013 345.891 28.912C345.518 29.304 345.014 29.5 344.379 29.5C343.931 29.5 343.549 29.4067 343.231 29.22C342.914 29.0333 342.671 28.772 342.503 28.436C342.354 28.1 342.279 27.6987 342.279 27.232V19.392H337.995V27.288C337.995 28.464 338.266 29.5093 338.807 30.424C339.349 31.32 340.095 32.0293 341.047 32.552Z" fill="#424650"/>
<path fill-rule="evenodd" clip-rule="evenodd" d="M358.241 39.048C356.991 39.048 355.861 38.824 354.853 38.376C353.864 37.928 353.08 37.3027 352.501 36.5C351.941 35.716 351.661 34.8107 351.661 33.784C351.661 32.9627 351.773 32.2907 351.997 31.768C352.24 31.2453 352.604 30.732 353.089 30.228L356.141 32.188C355.973 32.3747 355.843 32.5707 355.749 32.776C355.656 32.9813 355.609 33.224 355.609 33.504C355.609 34.064 355.843 34.512 356.309 34.848C356.776 35.184 357.429 35.352 358.269 35.352C359.165 35.352 359.856 35.1373 360.341 34.708C360.827 34.2973 361.069 33.7093 361.069 32.944C361.069 32.44 360.948 32.0013 360.705 31.628C360.463 31.236 360.117 30.9373 359.669 30.732C359.24 30.508 358.745 30.396 358.185 30.396C357.121 30.396 356.16 30.1533 355.301 29.668C354.461 29.164 353.789 28.492 353.285 27.652C352.8 26.7933 352.557 25.832 352.557 24.768C352.557 23.6667 352.809 22.696 353.313 21.856C353.836 20.9973 354.536 20.3253 355.413 19.84C356.309 19.3547 357.308 19.112 358.409 19.112C359.354 19.112 360.217 19.2907 360.997 19.648L363.253 17.432L365.717 19.896L363.626 21.9875C364.049 22.7302 364.261 23.5637 364.261 24.488C364.261 25.5147 364.009 26.42 363.505 27.204C363.191 27.7119 362.798 28.1493 362.327 28.5162C363.056 28.984 363.645 29.5732 364.093 30.284C364.635 31.1427 364.905 32.1227 364.905 33.224C364.905 34.3627 364.625 35.3707 364.065 36.248C363.505 37.1253 362.731 37.8067 361.741 38.292C360.752 38.796 359.585 39.048 358.241 39.048ZM358.409 26.868C358.839 26.868 359.212 26.784 359.529 26.616C359.847 26.4293 360.099 26.1773 360.285 25.86C360.472 25.5427 360.565 25.1787 360.565 24.768C360.565 24.3573 360.472 23.9933 360.285 23.676C360.117 23.3587 359.865 23.116 359.529 22.948C359.212 22.7613 358.839 22.668 358.409 22.668C357.98 22.668 357.607 22.7613 357.289 22.948C356.972 23.116 356.72 23.3587 356.533 23.676C356.347 23.9933 356.253 24.3573 356.253 24.768C356.253 25.1787 356.347 25.5427 356.533 25.86C356.72 26.1773 356.972 26.4293 357.289 26.616C357.625 26.784 357.999 26.868 358.409 26.868Z" fill="#424650"/>
<path d="M367.328 16.844C367.776 17.292 368.336 17.516 369.008 17.516C369.68 17.516 370.231 17.292 370.66 16.844C371.089 16.3773 371.304 15.8173 371.304 15.164C371.304 14.492 371.089 13.932 370.66 13.484C370.231 13.036 369.68 12.812 369.008 12.812C368.336 12.812 367.776 13.036 367.328 13.484C366.899 13.932 366.684 14.492 366.684 15.164C366.684 15.8173 366.899 16.3773 367.328 16.844Z" fill="#424650"/>
<path d="M291.79 19.392V33H296.074V19.392H291.79Z" fill="#424650"/>
<path d="M366.852 19.392V33H371.136V19.392H366.852Z" fill="#424650"/>
</g>
<g opacity="0.84">
<path fill-rule="evenodd" clip-rule="evenodd" d="M422.68 2.01388C423.127 1.78062 423.661 1.7876 424.102 2.03247L434.228 7.65748C434.705 7.92204 435 8.42403 435 8.96885L434.999 20.2184C434.999 20.7772 434.689 21.2897 434.193 21.5482L408.32 35.0478C407.873 35.2811 407.338 35.2741 406.897 35.0291L396.773 29.4043C396.297 29.1397 396.002 28.638 396.002 28.0933L396 16.8436C396 16.2847 396.311 15.7721 396.806 15.5135L422.68 2.01388ZM399 17.7526L399.002 25.6188L421.875 13.6842L421.874 5.81805L399 17.7526ZM424.874 5.89309L424.875 13.7108L431.999 17.669L432 9.85139L424.874 5.89309ZM430.336 20.1768L423.353 16.297L400.665 28.1346L407.648 32.0144L430.336 20.1768Z" fill="#424650"/>
<path opacity="0.5" fill-rule="evenodd" clip-rule="evenodd" d="M408.32 46.2986C407.873 46.5319 407.339 46.5249 406.898 46.28L396.772 40.655C396.295 40.3905 396 39.8885 396 39.3436L396.001 28.0941C396.001 27.5353 396.311 27.0228 396.807 26.7643L422.68 13.2647C423.127 13.0314 423.662 13.0384 424.103 13.2834L434.227 18.9082C434.703 19.1728 434.998 19.6745 434.998 20.2192L435 31.4689C435 32.0278 434.689 32.5404 434.194 32.799L408.32 46.2986ZM432 30.5599L431.998 22.6937L409.125 34.6282L409.126 42.4944L432 30.5599ZM406.126 42.4194L406.125 34.6017L399.001 30.6435L399 38.4611L406.126 42.4194ZM400.664 28.1357L407.647 32.0155L430.335 20.1779L423.352 16.2981L400.664 28.1357Z" fill="#424650"/>
</g>
<g opacity="0.84">
<path d="M461.065 26.979C461.065 30.678 458.095 33.27 453.235 33.27C448.348 33.27 445.297 30.651 445 26.547H449.158C449.266 28.68 450.643 30.057 453.154 30.057C455.233 30.057 456.718 29.139 456.718 27.573C456.718 26.358 455.773 25.629 454.126 25.305L450.94 24.684C447.997 24.117 445.729 22.524 445.729 19.311C445.729 15.855 448.78 13.371 452.965 13.371C457.312 13.371 460.498 15.909 460.768 19.959H456.61C456.475 17.934 455.071 16.557 453.019 16.557C451.021 16.557 449.887 17.691 449.887 19.041C449.887 20.364 451.102 20.931 452.506 21.201L455.827 21.876C459.229 22.551 461.065 24.117 461.065 26.979Z" fill="#424650"/>
<path d="M471.757 29.355V32.622C470.839 33.081 469.975 33.27 468.868 33.27C465.898 33.27 464.035 31.569 464.035 28.329V21.795H461.119V18.582H464.035V14.316H467.761V18.582H471.892V21.795H467.761V27.465C467.761 29.139 468.517 29.814 469.867 29.814C470.569 29.814 471.217 29.652 471.757 29.355Z" fill="#424650"/>
<path d="M481.689 33V31.218C480.744 32.568 479.313 33.27 477.342 33.27C474.345 33.27 472.347 31.515 472.347 28.815C472.347 26.007 474.615 24.495 478.827 24.495C479.637 24.495 480.339 24.549 481.23 24.657V23.793C481.23 22.173 480.312 21.228 478.746 21.228C477.126 21.228 476.154 22.173 476.019 23.793H472.644C472.86 20.472 475.263 18.312 478.746 18.312C482.526 18.312 484.74 20.391 484.74 23.928V33H481.689ZM475.884 28.707C475.884 29.922 476.748 30.678 478.152 30.678C480.069 30.678 481.23 29.625 481.23 27.951V26.925C480.339 26.79 479.718 26.736 479.07 26.736C476.937 26.736 475.884 27.411 475.884 28.707Z" fill="#424650"/>
<path d="M492.97 33.27C488.812 33.27 485.95 30.192 485.95 25.791C485.95 21.471 488.92 18.312 492.97 18.312C496.723 18.312 499.504 20.85 499.963 24.738H496.021C495.832 22.821 494.671 21.633 492.97 21.633C491.026 21.633 489.784 23.226 489.784 25.791C489.784 28.383 490.999 29.949 492.97 29.949C494.698 29.949 495.805 28.815 496.021 26.844H499.963C499.531 30.813 496.831 33.27 492.97 33.27Z" fill="#424650"/>
<path d="M505.045 33H501.292V13.614H505.045V24.684L510.31 18.582H514.63L508.663 25.494L515.332 33H510.553L505.045 26.304V33Z" fill="#424650"/>
<path d="M529.538 25.791C529.538 21.525 532.049 18.312 535.937 18.312C537.665 18.312 539.123 19.068 540.203 20.445V13.614H543.929V33H540.5V30.921C539.366 32.433 537.8 33.27 535.937 33.27C532.049 33.27 529.538 30.003 529.538 25.791ZM533.399 25.791C533.399 28.491 534.938 29.922 536.774 29.922C538.637 29.922 540.176 28.464 540.176 25.737C540.176 23.01 538.61 21.633 536.774 21.633C534.938 21.633 533.399 23.037 533.399 25.791Z" fill="#424650"/>
<path d="M563.613 33H551.085V13.614H555.189V29.301H563.613V33Z" fill="#424650"/>
<path d="M573.613 33V31.218C572.668 32.568 571.237 33.27 569.266 33.27C566.269 33.27 564.271 31.515 564.271 28.815C564.271 26.007 566.539 24.495 570.751 24.495C571.561 24.495 572.263 24.549 573.154 24.657V23.793C573.154 22.173 572.236 21.228 570.67 21.228C569.05 21.228 568.078 22.173 567.943 23.793H564.568C564.784 20.472 567.187 18.312 570.67 18.312C574.45 18.312 576.664 20.391 576.664 23.928V33H573.613ZM567.808 28.707C567.808 29.922 568.672 30.678 570.076 30.678C571.993 30.678 573.154 29.625 573.154 27.951V26.925C572.263 26.79 571.642 26.736 570.994 26.736C568.861 26.736 567.808 27.411 567.808 28.707Z" fill="#424650"/>
<path d="M593.209 25.791C593.209 30.003 590.698 33.27 586.81 33.27C584.947 33.27 583.381 32.433 582.274 30.921V33H578.818V13.614H582.571V20.445C583.624 19.041 585.082 18.312 586.81 18.312C590.698 18.312 593.209 21.525 593.209 25.791ZM589.348 25.791C589.348 23.037 587.809 21.633 585.973 21.633C584.164 21.633 582.598 23.01 582.598 25.737C582.598 28.464 584.11 29.922 585.973 29.922C587.809 29.922 589.348 28.491 589.348 25.791Z" fill="#424650"/>
<path d="M522.19 33.243C526.132 33.243 528.913 30.921 528.94 27.627H525.295C525.187 29.274 523.999 30.273 522.136 30.273C520.192 30.273 519.058 29.301 519.058 27.681C519.058 26.088 520.381 25.143 522.622 25.143H524.593V22.173H522.838C521.002 22.173 519.895 21.255 519.895 19.77C519.895 18.339 520.84 17.448 522.406 17.448C523.945 17.448 524.917 18.42 524.944 20.013H528.589C528.562 16.854 525.808 14.478 522.217 14.478C518.383 14.478 516.034 16.557 516.034 19.5C516.034 21.174 517.006 22.497 518.761 23.415C516.493 24.144 515.197 25.602 515.197 27.573C515.197 30.948 518.005 33.243 522.19 33.243Z" fill="#424650"/>
</g>
<g opacity="0.84">
<path fill-rule="evenodd" clip-rule="evenodd" d="M634.175 28.4933L638.743 33.0621C641.524 35.8425 646.032 35.8425 648.812 33.0621C649.729 32.1452 650.343 31.0403 650.656 29.8715L653.846 33.0621C656.627 35.8425 661.134 35.8425 663.915 33.0621C666.695 30.2818 666.695 25.774 663.915 22.9936L653.846 12.9251C651.066 10.1448 646.558 10.1448 643.778 12.9251C642.861 13.8421 642.246 14.9469 641.934 16.1157L638.743 12.9251C635.963 10.1448 631.455 10.1448 628.675 12.9251L620.389 21.2107C617.204 24.3965 617.204 29.5617 620.389 32.7475C623.575 35.9333 628.74 35.9333 631.926 32.7475C633.132 31.5415 633.882 30.0519 634.175 28.4933ZM636.226 15.4422C634.836 14.0521 632.582 14.0521 631.192 15.4422C629.802 16.8318 629.802 19.0844 631.19 20.4747L641.261 30.545C642.651 31.9352 644.905 31.9352 646.295 30.545C647.684 29.1556 647.685 26.9033 646.297 25.513L636.226 15.4422ZM629.409 23.7278L626.158 20.4765L622.906 23.7278C621.111 25.5234 621.111 28.4347 622.906 30.2304C624.702 32.026 627.613 32.026 629.409 30.2304C631.205 28.4347 631.205 25.5234 629.409 23.7278ZM646.292 20.4735C644.905 19.0831 644.906 16.8314 646.295 15.4422C647.685 14.0521 649.939 14.0521 651.329 15.4422L661.398 25.5108C662.788 26.9009 662.788 29.1548 661.398 30.545C660.007 31.9352 657.754 31.9352 656.363 30.545L646.292 20.4735Z" fill="#424650"/>
</g>
<g opacity="0.84">
<path d="M678.553 32.9998H674V11.5398H678.553L684.933 25.5478L691.342 11.5398H695.953V32.9998H691.4V28.5048C691.4 23.8648 691.4 22.8498 691.632 21.2548L687.079 30.9998H682.787L678.263 21.2548C678.524 22.8498 678.553 24.6478 678.553 26.9968V32.9998Z" fill="#424650"/>
<path d="M704.251 33.3768C701.177 33.3768 699.263 31.5788 699.263 28.7368C699.263 26.0688 701.148 24.4158 704.628 24.1548L708.688 23.8358V23.6038C708.688 22.1828 707.818 21.4288 706.223 21.4288C704.338 21.4288 703.323 22.1538 703.323 23.4588H699.611C699.611 20.1818 702.308 18.0358 706.455 18.0358C710.66 18.0358 713.038 20.3848 713.038 24.5318V32.9998H709.094L708.804 31.0858C708.34 32.4198 706.426 33.3768 704.251 33.3768ZM705.817 30.0708C707.528 30.0708 708.717 29.2298 708.717 27.5768V26.7938L706.455 26.9968C704.512 27.1708 703.816 27.6058 703.816 28.5338C703.816 29.5778 704.454 30.0708 705.817 30.0708Z" fill="#424650"/>
<path d="M715.516 25.4888C715.516 21.0808 718.387 18.0068 722.476 18.0068C724.448 18.0068 726.014 18.7608 726.797 19.9498L727.029 18.4998H731.234V32.0718C731.234 37.2628 728.247 40.3948 723.288 40.3948C718.851 40.3948 715.864 37.8718 715.458 33.7538H719.982C720.069 35.3778 721.287 36.3348 723.259 36.3348C725.405 36.3348 726.768 35.0588 726.768 32.9998V31.1148C725.898 32.1588 724.274 32.8258 722.389 32.8258C718.329 32.8258 715.516 29.8388 715.516 25.4888ZM720.011 25.3728C720.011 27.4608 721.403 28.9398 723.375 28.9398C725.405 28.9398 726.768 27.5188 726.768 25.3728C726.768 23.2558 725.405 21.8928 723.346 21.8928C721.374 21.8928 720.011 23.3138 720.011 25.3728Z" fill="#424650"/>
<path d="M739.059 32.9998H734.593V18.4998H738.798L739.088 20.0078C739.987 18.7608 741.64 18.0358 743.525 18.0358C746.976 18.0358 748.977 20.2398 748.977 24.0388V32.9998H744.511V25.1118C744.511 23.2848 743.496 22.0958 741.959 22.0958C740.19 22.0958 739.059 23.2558 739.059 25.0538V32.9998Z" fill="#424650"/>
<path d="M751.396 25.7208C751.396 21.1388 754.76 18.0648 759.4 18.0648C764.011 18.0648 767.375 21.1388 767.375 25.7208C767.375 30.3028 764.011 33.3478 759.4 33.3478C754.76 33.3478 751.396 30.3028 751.396 25.7208ZM755.891 25.6918C755.891 27.8958 757.312 29.3458 759.4 29.3458C761.459 29.3458 762.88 27.8958 762.88 25.6918C762.88 23.5168 761.459 22.0668 759.4 22.0668C757.312 22.0668 755.891 23.5168 755.891 25.6918Z" fill="#424650"/>
<path d="M774.431 32.9998H769.965V11.1338H774.431V32.9998Z" fill="#424650"/>
<path d="M779.985 16.2378C778.564 16.2378 777.433 15.1068 777.433 13.6858C777.433 12.2648 778.564 11.1628 779.985 11.1628C781.377 11.1628 782.508 12.2648 782.508 13.6858C782.508 15.1068 781.377 16.2378 779.985 16.2378ZM777.781 32.9998V18.4998H782.247V32.9998H777.781Z" fill="#424650"/>
<path d="M789.976 33.3768C786.902 33.3768 784.988 31.5788 784.988 28.7368C784.988 26.0688 786.873 24.4158 790.353 24.1548L794.413 23.8358V23.6038C794.413 22.1828 793.543 21.4288 791.948 21.4288C790.063 21.4288 789.048 22.1538 789.048 23.4588H785.336C785.336 20.1818 788.033 18.0358 792.18 18.0358C796.385 18.0358 798.763 20.3848 798.763 24.5318V32.9998H794.819L794.529 31.0858C794.065 32.4198 792.151 33.3768 789.976 33.3768ZM791.542 30.0708C793.253 30.0708 794.442 29.2298 794.442 27.5768V26.7938L792.18 26.9968C790.237 27.1708 789.541 27.6058 789.541 28.5338C789.541 29.5778 790.179 30.0708 791.542 30.0708Z" fill="#424650"/>
</g>
<g opacity="0.84">
<path fill-rule="evenodd" clip-rule="evenodd" d="M841.328 33.2066C842.157 32.2118 843.385 31.6365 844.68 31.6365H862.273C867.093 31.6365 871 27.7292 871 22.9093V18.5456C871 13.7257 867.093 9.81836 862.273 9.81836H858.862C857.567 9.81836 856.339 10.3936 855.51 11.3885L852.672 14.7937C851.843 15.7886 850.615 16.3638 849.32 16.3638H831.727C826.907 16.3638 823 20.2711 823 25.0911V29.4547C823 34.2747 826.907 38.182 831.727 38.182H835.138C836.433 38.182 837.661 37.6068 838.49 36.6119L841.328 33.2066ZM864.455 18.5456C864.455 17.3406 863.478 16.3638 862.273 16.3638H855.589C854.294 16.3638 853.066 16.939 852.237 17.9339L849.399 21.3392C848.57 22.334 847.342 22.9093 846.047 22.9093H831.727C830.522 22.9093 829.545 23.8861 829.545 25.0911V29.4547C829.545 30.6597 830.522 31.6365 831.727 31.6365H838.411C839.706 31.6365 840.934 31.0613 841.763 30.0664L844.601 26.6612C845.43 25.6663 846.658 25.0911 847.953 25.0911H862.273C863.478 25.0911 864.455 24.1143 864.455 22.9093V18.5456Z" fill="#424650"/>
</g>
<g opacity="0.84">
<path d="M898.145 33.0005L895.148 22.4435L894.716 20.4995L894.257 22.4435L891.287 33.0005H886.427L881 14.6405H885.617L888.56 26.6825L889.046 28.8695L889.532 26.6825L892.934 14.6405H896.714L900.089 26.6825L900.575 28.8695L901.061 26.6825L904.004 14.6405H908.378L902.951 33.0005H898.145Z" fill="#424650"/>
<path d="M912.663 23.2805H908.532C908.964 20.0135 911.475 18.0155 915.201 18.0155C919.359 18.0155 921.519 20.4455 921.519 23.8205V29.3825C921.519 31.2725 921.681 32.2445 921.924 33.0005H917.658C917.523 32.5145 917.442 31.8935 917.415 31.1915C916.281 32.7575 914.553 33.4325 912.825 33.4325C910.071 33.4325 908.019 32.0285 908.019 29.2475C908.019 27.2765 909.153 25.7645 911.448 24.9545C913.338 24.3335 915.147 24.1445 917.388 24.1175V23.7935C917.388 22.2005 916.605 21.3635 915.012 21.3635C913.608 21.3635 912.852 22.1465 912.663 23.2805ZM912.15 28.9775C912.15 29.9495 912.879 30.5705 914.094 30.5705C915.93 30.5705 917.388 29.0855 917.388 27.0875V26.5205C913.203 26.6015 912.15 27.6275 912.15 28.9775Z" fill="#424650"/>
<path d="M923.92 33.0005V18.4745H928.051V20.4995C928.969 18.7715 930.373 18.0155 931.858 18.0155C932.452 18.0155 932.992 18.1775 933.289 18.4745V21.9575C932.803 21.8495 932.29 21.7955 931.642 21.7955C929.158 21.7955 928.051 23.1995 928.051 25.4945V33.0005H923.92Z" fill="#424650"/>
<path d="M938.533 38.9675H934.402V18.4745H938.533V19.9865C939.424 18.7175 940.666 18.0155 942.178 18.0155C945.931 18.0155 948.28 20.9585 948.28 25.7105C948.28 30.6515 945.877 33.4325 942.178 33.4325C940.639 33.4325 939.397 32.7845 938.533 31.5425V38.9675ZM941.314 21.3635C939.478 21.3635 938.533 22.9025 938.533 25.7105C938.533 28.5185 939.505 30.0845 941.314 30.0845C943.096 30.0845 944.041 28.5455 944.041 25.7105C944.041 22.9025 943.069 21.3635 941.314 21.3635Z" fill="#424650"/>
<path d="M953.51 22.4975C953.51 25.3595 962.501 22.8485 962.501 28.5995C962.501 31.4615 959.855 33.4325 956.075 33.4325C952.403 33.4325 949.757 31.8125 949.217 28.2215H953.348C953.537 29.5715 954.644 30.3005 956.183 30.3005C957.641 30.3005 958.37 29.7335 958.37 28.8425C958.37 26.0345 949.568 28.5455 949.568 22.7135C949.568 20.2835 951.539 18.0155 955.427 18.0155C958.91 18.0155 961.556 19.6085 961.961 23.2805H957.857C957.614 21.7955 956.75 21.1745 955.292 21.1745C954.212 21.1745 953.51 21.7145 953.51 22.4975Z" fill="#424650"/>
<path d="M968.17 38.9675H964.039V18.4745H968.17V19.9865C969.061 18.7175 970.303 18.0155 971.815 18.0155C975.568 18.0155 977.917 20.9585 977.917 25.7105C977.917 30.6515 975.514 33.4325 971.815 33.4325C970.276 33.4325 969.034 32.7845 968.17 31.5425V38.9675ZM970.951 21.3635C969.115 21.3635 968.17 22.9025 968.17 25.7105C968.17 28.5185 969.142 30.0845 970.951 30.0845C972.733 30.0845 973.678 28.5455 973.678 25.7105C973.678 22.9025 972.706 21.3635 970.951 21.3635Z" fill="#424650"/>
<path d="M993.246 28.2215C992.49 31.5695 989.79 33.4325 986.226 33.4325C981.717 33.4325 978.936 30.5165 978.936 25.7375C978.936 20.7965 981.744 18.0155 986.064 18.0155C990.411 18.0155 993.138 20.9045 993.138 25.6565V26.5745H983.148C983.364 28.8965 984.444 30.1385 986.226 30.1385C987.576 30.1385 988.494 29.5445 988.926 28.2215H993.246ZM986.064 21.3095C984.525 21.3095 983.553 22.3085 983.229 24.1985H988.872C988.548 22.3085 987.576 21.3095 986.064 21.3095Z" fill="#424650"/>
<path d="M1008.55 28.2215C1007.8 31.5695 1005.1 33.4325 1001.53 33.4325C997.024 33.4325 994.243 30.5165 994.243 25.7375C994.243 20.7965 997.051 18.0155 1001.37 18.0155C1005.72 18.0155 1008.44 20.9045 1008.44 25.6565V26.5745H998.455C998.671 28.8965 999.751 30.1385 1001.53 30.1385C1002.88 30.1385 1003.8 29.5445 1004.23 28.2215H1008.55ZM1001.37 21.3095C999.832 21.3095 998.86 22.3085 998.536 24.1985H1004.18C1003.85 22.3085 1002.88 21.3095 1001.37 21.3095Z" fill="#424650"/>
<path d="M1015.62 33.4325C1011.9 33.4325 1009.55 30.5165 1009.55 25.7375C1009.55 20.7965 1011.95 18.0155 1015.62 18.0155C1017.16 18.0155 1018.41 18.6635 1019.3 19.9055V13.5605H1023.43V33.0005H1019.3V31.4615C1018.41 32.7305 1017.14 33.4325 1015.62 33.4325ZM1016.52 30.0845C1018.35 30.0845 1019.3 28.5725 1019.3 25.7375C1019.3 22.9295 1018.32 21.3635 1016.52 21.3635C1014.73 21.3635 1013.79 22.9025 1013.79 25.7375C1013.79 28.5455 1014.76 30.0845 1016.52 30.0845Z" fill="#424650"/>
</g>
<g opacity="0.84">
<rect x="1048.6" y="19.2002" width="9.59998" height="9.59999" fill="#424650"/>
<rect x="1079.4" y="28.7998" width="9.6" height="9.59999" transform="rotate(180 1079.4 28.7998)" fill="#424650"/>
<path opacity="0.2" d="M1058.2 19.1996L1069.8 9.59961V19.1996L1058.2 28.7996V19.1996Z" fill="#424650"/>
<path opacity="0.5" d="M1069.8 28.8004L1058.2 38.4004L1058.2 28.8004L1069.8 19.2004L1069.8 28.8004Z" fill="#424650"/>
<path opacity="0.6" d="M1048.6 19.2L1069.8 0V9.59999L1058.2 19.2H1048.6Z" fill="#424650"/>
<path opacity="0.7" d="M1079.4 28.8L1058.2 48L1058.2 38.4L1069.8 28.8L1079.4 28.8Z" fill="#424650"/>
</g>
<g opacity="0.84">
<path d="M1098.13 33.243C1095.46 33.243 1093.44 32.649 1092.05 31.461C1090.68 30.273 1090 28.725 1090 26.817H1094.27C1094.3 27.789 1094.63 28.572 1095.24 29.166C1095.87 29.742 1096.89 30.03 1098.29 30.03C1099.37 30.03 1100.23 29.832 1100.88 29.436C1101.53 29.04 1101.85 28.455 1101.85 27.681C1101.85 27.051 1101.72 26.565 1101.45 26.223C1101.18 25.863 1100.71 25.584 1100.04 25.386C1099.38 25.188 1098.45 24.99 1097.26 24.792C1094.99 24.432 1093.29 23.82 1092.13 22.956C1090.98 22.074 1090.41 20.778 1090.41 19.068C1090.41 17.214 1091.09 15.756 1092.46 14.694C1093.83 13.614 1095.71 13.074 1098.1 13.074C1099.65 13.074 1100.98 13.317 1102.1 13.803C1103.21 14.289 1104.08 14.973 1104.69 15.855C1105.32 16.737 1105.63 17.763 1105.63 18.933H1101.39C1101.36 17.979 1101.01 17.295 1100.34 16.881C1099.69 16.467 1098.9 16.26 1097.97 16.26C1096.98 16.26 1096.19 16.467 1095.62 16.881C1095.06 17.277 1094.78 17.826 1094.78 18.528C1094.78 19.14 1094.94 19.599 1095.27 19.905C1095.59 20.211 1096.09 20.445 1096.78 20.607C1097.48 20.769 1098.4 20.949 1099.53 21.147C1100.36 21.273 1101.17 21.444 1101.96 21.66C1102.75 21.876 1103.46 22.2 1104.09 22.632C1104.74 23.046 1105.26 23.631 1105.63 24.387C1106.03 25.125 1106.23 26.088 1106.23 27.276C1106.23 29.04 1105.54 30.48 1104.18 31.596C1102.83 32.694 1100.81 33.243 1098.13 33.243Z" fill="#424650"/>
<path d="M1108.41 16.665V13.317H1112.38V16.665H1108.41ZM1108.41 33V18.528H1112.38V33H1108.41Z" fill="#424650"/>
<path d="M1120.95 33.27C1118.85 33.27 1117.22 32.829 1116.07 31.947C1114.93 31.047 1114.37 29.877 1114.39 28.437H1118.28C1118.3 29.211 1118.57 29.769 1119.09 30.111C1119.63 30.435 1120.29 30.597 1121.06 30.597C1121.87 30.597 1122.48 30.462 1122.9 30.192C1123.31 29.904 1123.52 29.517 1123.52 29.031C1123.52 28.365 1123.27 27.933 1122.79 27.735C1122.32 27.537 1121.57 27.366 1120.55 27.222C1119.49 27.078 1118.51 26.871 1117.63 26.601C1116.75 26.313 1116.05 25.881 1115.53 25.305C1115.02 24.729 1114.77 23.91 1114.77 22.848C1114.77 21.318 1115.35 20.175 1116.5 19.419C1117.67 18.645 1119.2 18.258 1121.09 18.258C1122.94 18.258 1124.42 18.663 1125.52 19.473C1126.61 20.265 1127.18 21.381 1127.22 22.821H1123.33C1123.33 22.209 1123.11 21.741 1122.68 21.417C1122.27 21.093 1121.7 20.931 1120.98 20.931C1120.24 20.931 1119.68 21.075 1119.31 21.363C1118.93 21.633 1118.74 21.993 1118.74 22.443C1118.74 22.983 1118.98 23.361 1119.47 23.577C1119.95 23.793 1120.73 23.973 1121.79 24.117C1122.55 24.225 1123.27 24.36 1123.95 24.522C1124.63 24.666 1125.24 24.9 1125.76 25.224C1126.3 25.53 1126.72 25.962 1127.03 26.52C1127.35 27.06 1127.51 27.771 1127.51 28.653C1127.51 30.237 1126.93 31.407 1125.76 32.163C1124.59 32.901 1122.99 33.27 1120.95 33.27Z" fill="#424650"/>
<path d="M1128.57 37.509V34.242H1130.25C1130.84 34.242 1131.31 34.116 1131.65 33.864C1132.01 33.63 1132.28 33.261 1132.46 32.757L1132.81 31.866L1127.28 18.528H1131.62L1134.27 26.277L1134.73 27.816H1134.86L1135.29 26.277L1137.78 18.528H1142.02L1136.37 33.675C1135.82 35.187 1135.09 36.204 1134.19 36.726C1133.31 37.248 1132.24 37.509 1131 37.509H1128.57Z" fill="#424650"/>
<path d="M1143.12 37.509V18.528H1146.96L1147.09 21.039H1147.31C1147.65 20.193 1148.22 19.518 1149.01 19.014C1149.82 18.51 1150.78 18.258 1151.9 18.258C1153.63 18.258 1155.02 18.888 1156.08 20.148C1157.16 21.39 1157.7 23.262 1157.7 25.764C1157.7 28.248 1157.16 30.12 1156.08 31.38C1155.02 32.64 1153.63 33.27 1151.9 33.27C1150.78 33.27 1149.82 33.018 1149.01 32.514C1148.22 31.992 1147.65 31.317 1147.31 30.489H1147.09V37.509H1143.12ZM1150.41 30.057C1151.39 30.057 1152.16 29.715 1152.74 29.031C1153.33 28.329 1153.63 27.24 1153.63 25.764C1153.63 24.288 1153.33 23.208 1152.74 22.524C1152.16 21.822 1151.39 21.471 1150.41 21.471C1149.68 21.471 1149.06 21.642 1148.58 21.984C1148.09 22.326 1147.73 22.776 1147.5 23.334C1147.26 23.874 1147.15 24.45 1147.15 25.062V26.466C1147.15 27.078 1147.26 27.663 1147.5 28.221C1147.73 28.761 1148.09 29.202 1148.58 29.544C1149.06 29.886 1149.68 30.057 1150.41 30.057Z" fill="#424650"/>
<path d="M1159.67 33V13.317H1163.64V21.147H1163.8C1164.2 20.193 1164.81 19.473 1165.64 18.987C1166.46 18.501 1167.39 18.258 1168.42 18.258C1169.39 18.258 1170.25 18.456 1171.01 18.852C1171.78 19.248 1172.4 19.887 1172.85 20.769C1173.3 21.633 1173.52 22.794 1173.52 24.252V33H1169.55V25.116C1169.55 23.892 1169.34 22.983 1168.9 22.389C1168.47 21.795 1167.78 21.498 1166.82 21.498C1165.8 21.498 1165.01 21.849 1164.45 22.551C1163.91 23.235 1163.64 24.036 1163.64 24.954V33H1159.67Z" fill="#424650"/>
<path d="M1181 33.243C1179.33 33.243 1178.05 32.757 1177.17 31.785C1176.28 30.813 1175.84 29.4 1175.84 27.546V18.528H1179.81V26.493C1179.81 27.645 1180.02 28.527 1180.43 29.139C1180.87 29.733 1181.58 30.03 1182.57 30.03C1183.57 30.03 1184.35 29.688 1184.89 29.004C1185.45 28.302 1185.73 27.474 1185.73 26.52V18.528H1189.69V33H1185.89L1185.73 30.354H1185.54C1185.19 31.29 1184.61 32.01 1183.78 32.514C1182.97 33 1182.04 33.243 1181 33.243Z" fill="#424650"/>
<path d="M1198.22 33.27C1196.12 33.27 1194.49 32.829 1193.34 31.947C1192.2 31.047 1191.65 29.877 1191.66 28.437H1195.55C1195.57 29.211 1195.84 29.769 1196.36 30.111C1196.9 30.435 1197.56 30.597 1198.33 30.597C1199.14 30.597 1199.75 30.462 1200.17 30.192C1200.58 29.904 1200.79 29.517 1200.79 29.031C1200.79 28.365 1200.55 27.933 1200.06 27.735C1199.59 27.537 1198.85 27.366 1197.82 27.222C1196.76 27.078 1195.79 26.871 1194.9 26.601C1194.02 26.313 1193.32 25.881 1192.8 25.305C1192.29 24.729 1192.04 23.91 1192.04 22.848C1192.04 21.318 1192.62 20.175 1193.77 19.419C1194.94 18.645 1196.47 18.258 1198.36 18.258C1200.21 18.258 1201.69 18.663 1202.79 19.473C1203.89 20.265 1204.45 21.381 1204.49 22.821H1200.6C1200.6 22.209 1200.38 21.741 1199.95 21.417C1199.54 21.093 1198.97 20.931 1198.25 20.931C1197.51 20.931 1196.96 21.075 1196.58 21.363C1196.2 21.633 1196.01 21.993 1196.01 22.443C1196.01 22.983 1196.25 23.361 1196.74 23.577C1197.23 23.793 1198 23.973 1199.06 24.117C1199.82 24.225 1200.54 24.36 1201.22 24.522C1201.91 24.666 1202.51 24.9 1203.03 25.224C1203.57 25.53 1203.99 25.962 1204.3 26.52C1204.62 27.06 1204.79 27.771 1204.79 28.653C1204.79 30.237 1204.2 31.407 1203.03 32.163C1201.86 32.901 1200.26 33.27 1198.22 33.27Z" fill="#424650"/>
</g>
</svg>
